<svg xmlns="http://www.w3.org/2000/svg" xmlns:xlink="http://www.w3.org/1999/xlink" version="1.1" x="0px" y="0px" viewBox="0 0 100 100" style="enable-background:new 0 0 100 100;" xml:space="preserve"><style type="text/css">
	.st0{fill:none;stroke:#231F20;stroke-width:4;stroke-linecap:round;stroke-linejoin:round;stroke-miterlimit:10;}
	.st1{fill:none;stroke:#231F20;stroke-width:6;stroke-linecap:round;stroke-linejoin:round;stroke-miterlimit:10;}
	.st2{fill:none;stroke:#231F20;stroke-width:8;stroke-linecap:round;stroke-linejoin:round;stroke-miterlimit:10;}
	.st3{fill:none;stroke:#231F20;stroke-width:8;stroke-linecap:round;stroke-linejoin:round;}
	.st4{fill:none;stroke:#231F20;stroke-width:8;stroke-linecap:round;stroke-linejoin:round;stroke-dasharray:0,12;}
	.st5{fill:none;stroke:#231F20;stroke-width:8;stroke-miterlimit:10;}
	.st6{fill:none;stroke:#000000;stroke-width:6;stroke-linecap:round;stroke-linejoin:round;stroke-miterlimit:10;}
	.st7{fill:none;stroke:#000000;stroke-width:6;stroke-miterlimit:10;}
	.st8{fill:none;stroke:#000000;stroke-width:6;stroke-linecap:round;stroke-linejoin:round;}
	.st9{fill:none;stroke:#000000;stroke-width:6;stroke-linecap:round;stroke-linejoin:round;stroke-dasharray:0,12;}
	.st10{fill:none;stroke:#231F20;stroke-width:6;stroke-miterlimit:10;}
	.st11{fill:none;stroke:#231F20;stroke-width:6;stroke-linecap:round;stroke-linejoin:round;}
	.st12{fill:none;stroke:#231F20;stroke-width:6;stroke-linecap:round;stroke-linejoin:round;stroke-dasharray:0,11;}
</style><g><path d="M41,82.7c0,3.5,2.8,6.3,6.3,6.3s6.3-2.8,6.3-6.3s-2.8-6.3-6.3-6.3S41,79.2,41,82.7z M49.7,82.7c0,1.3-1,2.3-2.3,2.3   C46,85,45,84,45,82.7s1-2.3,2.3-2.3C48.6,80.3,49.7,81.4,49.7,82.7z"></path><path d="M68,82.7c0,3.5,2.8,6.3,6.3,6.3s6.3-2.8,6.3-6.3s-2.8-6.3-6.3-6.3S68,79.2,68,82.7z M76.7,82.7c0,1.3-1,2.3-2.3,2.3   C73,85,72,84,72,82.7s1-2.3,2.3-2.3C75.6,80.3,76.7,81.4,76.7,82.7z"></path><path d="M85,52V35c0-4.4-3.6-8-8-8H34c0,0,0,0,0,0l-0.7-5.1c-0.2-1.6-0.6-3.1-1.2-4.6c0-0.1-0.1-0.2-0.1-0.3c-1.4-2.5-4.1-4-6.9-4   H14c-1.1,0-2,0.9-2,2s0.9,2,2,2h11c1.4,0,2.7,0.7,3.4,1.9c0.4,1.1,0.7,2.3,0.9,3.5L35,64.1c0.1,4.3,3.6,7.9,8,7.9h40   c1.1,0,2-0.9,2-2s-0.9-2-2-2H43c-2.2,0-4-1.8-4-4c0-0.1,0-0.2,0-0.3L38.5,60H77C81.4,60,85,56.4,85,52z M41,56h-3c0,0,0,0-0.1,0   l-3.4-25H41V56z M51,56h-6V31h6V56z M61,56h-6V31h6V56z M71,56h-6V31h6V56z M75,31h2c2.2,0,4,1.8,4,4v17c0,2.2-1.8,4-4,4h-2V31z"></path></g></svg>